<mxfile host="app.diagrams.net" modified="2022-11-04T16:40:23.075Z" agent="5.0 (Windows NT 10.0; Win64; x64) AppleWebKit/537.36 (KHTML, like Gecko) Chrome/107.0.0.0 Safari/537.36" etag="_g9drYSisT2Z_QHS95_j" version="20.5.1" type="github">
  <diagram id="sD_NUMUIdGsDcNFJ8aHR" name="Page-1">
    <mxGraphModel dx="780" dy="727" grid="1" gridSize="10" guides="1" tooltips="1" connect="1" arrows="1" fold="1" page="1" pageScale="1" pageWidth="850" pageHeight="1100" math="0" shadow="0">
      <root>
        <mxCell id="0" />
        <mxCell id="1" parent="0" />
        <mxCell id="dqpC5GSp7ClhQluWhs4B-13" value="" style="rounded=0;whiteSpace=wrap;html=1;fillColor=#f5f5f5;fontColor=#333333;strokeColor=none;" parent="1" vertex="1">
          <mxGeometry x="300" y="350" width="200" height="220" as="geometry" />
        </mxCell>
        <mxCell id="dqpC5GSp7ClhQluWhs4B-10" style="edgeStyle=orthogonalEdgeStyle;rounded=0;orthogonalLoop=1;jettySize=auto;html=1;" parent="1" source="dqpC5GSp7ClhQluWhs4B-1" target="dqpC5GSp7ClhQluWhs4B-5" edge="1">
          <mxGeometry relative="1" as="geometry" />
        </mxCell>
        <mxCell id="dqpC5GSp7ClhQluWhs4B-1" value="Endpoint" style="rounded=1;whiteSpace=wrap;html=1;" parent="1" vertex="1">
          <mxGeometry x="340" y="383" width="120" height="60" as="geometry" />
        </mxCell>
        <mxCell id="dqpC5GSp7ClhQluWhs4B-15" value="" style="edgeStyle=orthogonalEdgeStyle;rounded=0;orthogonalLoop=1;jettySize=auto;html=1;startArrow=classic;startFill=1;" parent="1" source="dqpC5GSp7ClhQluWhs4B-2" target="dqpC5GSp7ClhQluWhs4B-1" edge="1">
          <mxGeometry relative="1" as="geometry" />
        </mxCell>
        <mxCell id="dqpC5GSp7ClhQluWhs4B-2" value="Client" style="rounded=1;whiteSpace=wrap;html=1;" parent="1" vertex="1">
          <mxGeometry x="340" y="483" width="120" height="60" as="geometry" />
        </mxCell>
        <mxCell id="dqpC5GSp7ClhQluWhs4B-6" style="edgeStyle=orthogonalEdgeStyle;rounded=0;orthogonalLoop=1;jettySize=auto;html=1;entryX=0.5;entryY=0;entryDx=0;entryDy=0;dashed=1;startArrow=none;" parent="1" source="dqpC5GSp7ClhQluWhs4B-8" target="dqpC5GSp7ClhQluWhs4B-1" edge="1">
          <mxGeometry relative="1" as="geometry" />
        </mxCell>
        <mxCell id="dqpC5GSp7ClhQluWhs4B-4" value="Data Source" style="shape=cylinder3;whiteSpace=wrap;html=1;boundedLbl=1;backgroundOutline=1;size=15;fillColor=#dae8fc;strokeColor=#6c8ebf;" parent="1" vertex="1">
          <mxGeometry x="370" y="150" width="60" height="80" as="geometry" />
        </mxCell>
        <mxCell id="dqpC5GSp7ClhQluWhs4B-11" style="edgeStyle=orthogonalEdgeStyle;rounded=0;orthogonalLoop=1;jettySize=auto;html=1;entryX=1;entryY=0.5;entryDx=0;entryDy=0;" parent="1" source="dqpC5GSp7ClhQluWhs4B-5" target="dqpC5GSp7ClhQluWhs4B-2" edge="1">
          <mxGeometry relative="1" as="geometry" />
        </mxCell>
        <mxCell id="dqpC5GSp7ClhQluWhs4B-5" value="Storage" style="ellipse;shape=cloud;whiteSpace=wrap;html=1;fillColor=#f8cecc;strokeColor=#b85450;" parent="1" vertex="1">
          <mxGeometry x="540" y="473" width="120" height="80" as="geometry" />
        </mxCell>
        <mxCell id="dqpC5GSp7ClhQluWhs4B-8" value="LoRa" style="text;html=1;align=center;verticalAlign=middle;resizable=0;points=[];autosize=1;strokeColor=none;fillColor=none;" parent="1" vertex="1">
          <mxGeometry x="375" y="275" width="50" height="30" as="geometry" />
        </mxCell>
        <mxCell id="dqpC5GSp7ClhQluWhs4B-9" value="" style="edgeStyle=orthogonalEdgeStyle;rounded=0;orthogonalLoop=1;jettySize=auto;html=1;entryX=0.5;entryY=0;entryDx=0;entryDy=0;dashed=1;endArrow=none;" parent="1" source="dqpC5GSp7ClhQluWhs4B-4" target="dqpC5GSp7ClhQluWhs4B-8" edge="1">
          <mxGeometry relative="1" as="geometry">
            <mxPoint x="400" y="230" as="sourcePoint" />
            <mxPoint x="400" y="370" as="targetPoint" />
          </mxGeometry>
        </mxCell>
        <mxCell id="dqpC5GSp7ClhQluWhs4B-16" value="Monitoring" style="text;html=1;align=center;verticalAlign=middle;resizable=0;points=[];autosize=1;strokeColor=none;fillColor=none;" parent="1" vertex="1">
          <mxGeometry x="300" y="350" width="80" height="30" as="geometry" />
        </mxCell>
      </root>
    </mxGraphModel>
  </diagram>
</mxfile>
